<svg xmlns="http://www.w3.org/2000/svg" xmlns:xlink="http://www.w3.org/1999/xlink" xmlns:lucid="lucid" width="1891" height="3171"><g transform="translate(-100 -170)" lucid:page-tab-id="0_0"><path d="M0 0h2000v3500H0z" fill="#fff"/><path d="M284.9 193.15a9.7 9.7 0 0 1 10.2 0l159.8 98.7a3.7 3.7 0 0 1 0 6.3l-159.8 98.7a9.7 9.7 0 0 1-10.2 0l-159.8-98.7a3.7 3.7 0 0 1 0-6.3z" stroke="#282c33" stroke-width="2" fill="#fff"/><use xlink:href="#a" transform="matrix(1,0,0,1,125,195) translate(48.986481481481505 105.27777777777777)"/><use xlink:href="#b" transform="matrix(1,0,0,1,125,195) translate(96.76425925925928 105.27777777777777)"/><use xlink:href="#c" transform="matrix(1,0,0,1,125,195) translate(186.76425925925926 105.27777777777777)"/><path d="M497.06 295.98h-38.4v-1.96h38.4zm46.48 0h-20.9v-1.96h20.9z" stroke="#008a0e" stroke-width=".05" fill="#008a0e"/><path d="M458.68 295.98h-1.13l.1-.98-.1-.95 1.13-.03z" fill="#008a0e"/><path stroke="#008a0e" stroke-width=".05" fill="#008a0e"/><path d="M558.8 295l-14.26 4.63v-9.26z" fill="#008a0e"/><path d="M561.97 295l-18.4 5.98v-11.96zm-16.45 3.3l10.13-3.3-10.13-3.3z" stroke="#008a0e" stroke-width=".05" fill="#008a0e"/><use xlink:href="#d" transform="matrix(1,0,0,1,497.0624278359178,284.3333333333333) translate(0 14.222222222222223)"/><path d="M290.98 460.5h-1.96v-10.68h1.96zm0-32.02h-1.96V400.3h1.96z" stroke="#e81313" stroke-width=".05" fill="#e81313"/><path d="M290 399.3l.98-.06v1.08h-1.96v-1.08z" fill="#e81313"/><path stroke="#e81313" stroke-width=".05" fill="#e81313"/><path d="M290 475.76l-4.63-14.26h9.26z" fill="#e81313"/><path d="M290 478.92l-5.98-18.4h11.96zm-3.3-16.45l3.3 10.14 3.3-10.13z" stroke="#e81313" stroke-width=".05" fill="#e81313"/><use xlink:href="#e" transform="matrix(1,0,0,1,279.1604938271605,428.4823340858945) translate(0 14.222222222222223)"/><path d="M235 486a6 6 0 0 1 6-6h98a6 6 0 0 1 6 6v68a6 6 0 0 1-6 6h-98a6 6 0 0 1-6-6z" stroke="#282c33" stroke-width="2" fill="#fff"/><use xlink:href="#f" transform="matrix(1,0,0,1,247,492) translate(21.88888888888889 31.77777777777778)"/><path d="M675.15 211.03a8.23 8.23 0 0 1 9.7 0l110.3 80.43a4.38 4.38 0 0 1 0 7.08l-110.3 80.42a8.23 8.23 0 0 1-9.7 0l-110.3-80.42a4.38 4.38 0 0 1 0-7.08z" stroke="#282c33" stroke-width="2" fill="#fff"/><use xlink:href="#g" transform="matrix(1,0,0,1,565,212.5) translate(57.31981481481482 84.80902777777777)"/><path d="M880 241a6 6 0 0 1 6-6h148a6 6 0 0 1 6 6v108a6 6 0 0 1-6 6H886a6 6 0 0 1-6-6z" stroke="#282c33" stroke-width="2" fill="#fff"/><use xlink:href="#h" transform="matrix(1,0,0,1,892,247) translate(23 53.77777777777778)"/><use xlink:href="#i" transform="matrix(1,0,0,1,892,247) translate(70.77777777777777 53.77777777777778)"/><path d="M675.15 466.04a8.23 8.23 0 0 1 9.7 0l110.3 80.43a4.38 4.38 0 0 1 0 7.06l-110.3 80.44a8.23 8.23 0 0 1-9.7 0l-110.3-80.44a4.38 4.38 0 0 1 0-7.06z" stroke="#282c33" stroke-width="2" fill="#fff"/><use xlink:href="#j" transform="matrix(1,0,0,1,565,467.5) translate(57.31981481481482 84.80902777777777)"/><path d="M825.7 295.98h-26.75v-1.96h26.74zm34.8 0h-9.23v-1.96h9.23z" stroke="#008a0e" stroke-width=".05" fill="#008a0e"/><path d="M798.98 295.98h-1.12l.1-.98-.1-.98h1.12z" fill="#008a0e"/><path stroke="#008a0e" stroke-width=".05" fill="#008a0e"/><path d="M875.76 295l-14.26 4.63v-9.26z" fill="#008a0e"/><path d="M878.92 295l-18.4 5.98v-11.96zm-16.45 3.3l10.14-3.3-10.13-3.3z" stroke="#008a0e" stroke-width=".05" fill="#008a0e"/><use xlink:href="#d" transform="matrix(1,0,0,1,825.6867643762698,284.3333333333333) translate(0 14.222222222222223)"/><path d="M680.98 444.95H679v-11.78H681zm0-33.12H679v-29.28H681z" stroke="#e81313" stroke-width=".05" fill="#e81313"/><path d="M680 381.55l.98-.06v1.07H679v-1.08z" fill="#e81313"/><path stroke="#e81313" stroke-width=".05" fill="#e81313"/><path d="M680 460.22l-4.63-14.27h9.26z" fill="#e81313"/><path d="M680 463.37l-5.98-18.4h11.96zm-3.3-16.44l3.3 10.13 3.3-10.13z" stroke="#e81313" stroke-width=".05" fill="#e81313"/><use xlink:href="#e" transform="matrix(1,0,0,1,669.1604938271605,411.8333333333333) translate(0 14.222222222222223)"/><path d="M798.95 550h84.6" stroke="#008a0e" stroke-width="2" fill="none"/><path d="M798.98 550.98h-1.12l.1-.98-.1-.98h1.12z" stroke="#008a0e" stroke-width=".05" fill="#008a0e"/><path d="M898.8 550l-14.26 4.63v-9.26z" stroke="#008a0e" stroke-width="2" fill="#008a0e"/><use xlink:href="#d" transform="matrix(1,0,0,1,827.7912463564516,554.0000000000001) translate(0 14.222222222222223)"/><path d="M1015.15 466.04a8.23 8.23 0 0 1 9.7 0l110.3 80.43a4.38 4.38 0 0 1 0 7.06l-110.3 80.44a8.23 8.23 0 0 1-9.7 0l-110.3-80.44a4.38 4.38 0 0 1 0-7.06z" stroke="#282c33" stroke-width="2" fill="#fff"/><use xlink:href="#k" transform="matrix(1,0,0,1,905,467.5) translate(70.00500000000001 74.49652777777777)"/><use xlink:href="#l" transform="matrix(1,0,0,1,905,467.5) translate(117.78277777777778 74.49652777777777)"/><use xlink:href="#c" transform="matrix(1,0,0,1,905,467.5) translate(67.87537037037038 101.16319444444446)"/><path d="M1355.15 466.04a8.23 8.23 0 0 1 9.7 0l110.3 80.43a4.38 4.38 0 0 1 0 7.06l-110.3 80.44a8.23 8.23 0 0 1-9.7 0l-110.3-80.44a4.38 4.38 0 0 1 0-7.06z" stroke="#282c33" stroke-width="2" fill="#fff"/><use xlink:href="#m" transform="matrix(1,0,0,1,1245,467.5) translate(72.87537037037038 84.80902777777777)"/><path d="M1355.15 823.53a8.23 8.23 0 0 1 9.7 0l110.3 80.44a4.38 4.38 0 0 1 0 7.06l-110.3 80.44a8.23 8.23 0 0 1-9.7 0l-110.3-80.44a4.38 4.38 0 0 1 0-7.06z" stroke="#282c33" stroke-width="2" fill="#fff"/><use xlink:href="#n" transform="matrix(1,0,0,1,1245,825) translate(72.87537037037038 84.80902777777777)"/><path d="M1355.15 1178.54a8.23 8.23 0 0 1 9.7 0l110.3 80.42a4.38 4.38 0 0 1 0 7.08l-110.3 80.42a8.23 8.23 0 0 1-9.7 0l-110.3-80.42a4.38 4.38 0 0 1 0-7.08z" stroke="#282c33" stroke-width="2" fill="#fff"/><use xlink:href="#o" transform="matrix(1,0,0,1,1245,1180) translate(72.87537037037038 84.80902777777777)"/><path d="M1675.15 466.04a8.23 8.23 0 0 1 9.7 0l110.3 80.43a4.38 4.38 0 0 1 0 7.06l-110.3 80.44a8.23 8.23 0 0 1-9.7 0l-110.3-80.44a4.38 4.38 0 0 1 0-7.06z" stroke="#282c33" stroke-width="2" fill="#fff"/><use xlink:href="#p" transform="matrix(1,0,0,1,1565,467.5) translate(38.43092592592593 84.80902777777777)"/><use xlink:href="#q" transform="matrix(1,0,0,1,1565,467.5) translate(107.31981481481482 84.80902777777777)"/><path d="M1675.15 823.53a8.23 8.23 0 0 1 9.7 0l110.3 80.44a4.38 4.38 0 0 1 0 7.06l-110.3 80.44a8.23 8.23 0 0 1-9.7 0l-110.3-80.44a4.38 4.38 0 0 1 0-7.06z" stroke="#282c33" stroke-width="2" fill="#fff"/><use xlink:href="#p" transform="matrix(1,0,0,1,1565,825) translate(38.43092592592593 84.80902777777777)"/><use xlink:href="#r" transform="matrix(1,0,0,1,1565,825) translate(107.31981481481482 84.80902777777777)"/><path d="M1675.15 1178.54a8.23 8.23 0 0 1 9.7 0l110.3 80.42a4.38 4.38 0 0 1 0 7.08l-110.3 80.42a8.23 8.23 0 0 1-9.7 0l-110.3-80.42a4.38 4.38 0 0 1 0-7.08z" stroke="#282c33" stroke-width="2" fill="#fff"/><use xlink:href="#p" transform="matrix(1,0,0,1,1565,1180) translate(38.43092592592593 84.80902777777777)"/><use xlink:href="#s" transform="matrix(1,0,0,1,1565,1180) translate(107.31981481481482 84.80902777777777)"/><path d="M675.15 1903.54a8.23 8.23 0 0 1 9.7 0l110.3 80.42a4.38 4.38 0 0 1 0 7.08l-110.3 80.43a8.23 8.23 0 0 1-9.7 0l-110.3-80.43a4.38 4.38 0 0 1 0-7.08z" stroke="#282c33" stroke-width="2" fill="#fff"/><use xlink:href="#t" transform="matrix(1,0,0,1,565,1905) translate(57.31981481481482 84.80902777777777)"/><path d="M1015.15 1543.54a8.23 8.23 0 0 1 9.7 0l110.3 80.42a4.38 4.38 0 0 1 0 7.08l-110.3 80.42a8.23 8.23 0 0 1-9.7 0l-110.3-80.42a4.38 4.38 0 0 1 0-7.08z" stroke="#282c33" stroke-width="2" fill="#fff"/><use xlink:href="#u" transform="matrix(1,0,0,1,904.9999999999999,1545) translate(33.43092592592593 84.80902777777777)"/><use xlink:href="#v" transform="matrix(1,0,0,1,904.9999999999999,1545) translate(81.2087037037037 84.80902777777777)"/><path d="M1138.95 550h84.6" stroke="#008a0e" stroke-width="2" fill="none"/><path d="M1138.98 550.98h-1.12l.1-.98-.1-.98h1.12z" stroke="#008a0e" stroke-width=".05" fill="#008a0e"/><path d="M1238.8 550l-14.26 4.63v-9.26z" stroke="#008a0e" stroke-width="2" fill="#008a0e"/><use xlink:href="#d" transform="matrix(1,0,0,1,1177.20987654321,554.0000000000001) translate(0 14.222222222222223)"/><path d="M1478.95 550h64.6" stroke="#008a0e" stroke-width="2" fill="none"/><path d="M1478.98 550.98h-1.12l.1-.98-.1-.98h1.12z" stroke="#008a0e" stroke-width=".05" fill="#008a0e"/><path d="M1558.8 550l-14.26 4.63v-9.26z" stroke="#008a0e" stroke-width="2" fill="#008a0e"/><use xlink:href="#d" transform="matrix(1,0,0,1,1507.20987654321,554.0000000000001) translate(0 14.222222222222223)"/><path d="M1478.95 907.5h64.6" stroke="#008a0e" stroke-width="2" fill="none"/><path d="M1478.98 908.48h-1.12l.1-.98-.1-.98h1.12z" stroke="#008a0e" stroke-width=".05" fill="#008a0e"/><path d="M1558.8 907.5l-14.26 4.63v-9.26z" stroke="#008a0e" stroke-width="2" fill="#008a0e"/><use xlink:href="#d" transform="matrix(1,0,0,1,1507.20987654321,911.5) translate(0 14.222222222222223)"/><path d="M1478.95 1262.5h64.6" stroke="#008a0e" stroke-width="2" fill="none"/><path d="M1478.98 1263.47h-1.12l.1-.97-.1-.97h1.12z" stroke="#008a0e" stroke-width=".05" fill="#008a0e"/><path d="M1558.8 1262.5l-14.26 4.63v-9.27z" stroke="#008a0e" stroke-width="2" fill="#008a0e"/><use xlink:href="#d" transform="matrix(1,0,0,1,1507.20987654321,1266.5) translate(0 14.222222222222223)"/><path d="M1020.98 1522.45H1019v-423.03h1.96zm0-444.37H1019V637.55h1.96z" stroke="#e81313" stroke-width=".05" fill="#e81313"/><path d="M1020 636.55l.98-.06v1.07H1019v-1.1z" fill="#e81313"/><path stroke="#e81313" stroke-width=".05" fill="#e81313"/><path d="M1020 1537.72l-4.63-14.27h9.26z" fill="#e81313"/><path d="M1020 1540.87l-5.98-18.4h11.96zm-3.3-16.44l3.3 10.13 3.3-10.13z" stroke="#e81313" stroke-width=".05" fill="#e81313"/><use xlink:href="#e" transform="matrix(1,0,0,1,1009.1604938271605,1078.0833333333333) translate(0 14.222222222222223)"/><path d="M680.98 1882.45H679v-603.03H681zm0-624.37H679V637.55H681z" stroke="#e81313" stroke-width=".05" fill="#e81313"/><path d="M680 636.55l.98-.06v1.07H679v-1.1z" fill="#e81313"/><path stroke="#e81313" stroke-width=".05" fill="#e81313"/><path d="M680 1897.72l-4.63-14.27h9.26z" fill="#e81313"/><path d="M680 1900.87l-5.98-18.4h11.96zm-3.3-16.44l3.3 10.13 3.3-10.13z" stroke="#e81313" stroke-width=".05" fill="#e81313"/><use xlink:href="#e" transform="matrix(1,0,0,1,669.1604938271605,1258.0833333333333) translate(0 14.222222222222223)"/><path d="M1360.97 802.45h-1.94v-63.03h1.94zm0-84.37h-1.94v-80.53h1.94z" stroke="#e81313" stroke-width=".05" fill="#e81313"/><path d="M1360 636.55l.97-.06v1.07h-1.94v-1.1z" fill="#e81313"/><path stroke="#e81313" stroke-width=".05" fill="#e81313"/><path d="M1360 817.72l-4.63-14.27h9.27z" fill="#e81313"/><path d="M1360 820.87l-5.98-18.4h11.96zm-3.3-16.44l3.3 10.13 3.3-10.13z" stroke="#e81313" stroke-width=".05" fill="#e81313"/><use xlink:href="#e" transform="matrix(1,0,0,1,1349.1604938271605,718.0833333333334) translate(0 14.222222222222223)"/><path d="M1360.97 1157.45h-1.94v-61.78h1.94zm0-83.12h-1.94v-79.28h1.94z" stroke="#e81313" stroke-width=".05" fill="#e81313"/><path d="M1360 994.05l.97-.06v1.07h-1.94v-1.1z" fill="#e81313"/><path stroke="#e81313" stroke-width=".05" fill="#e81313"/><path d="M1360 1172.72l-4.63-14.27h9.27z" fill="#e81313"/><path d="M1360 1175.87l-5.98-18.4h11.96zm-3.3-16.44l3.3 10.13 3.3-10.13z" stroke="#e81313" stroke-width=".05" fill="#e81313"/><use xlink:href="#e" transform="matrix(1,0,0,1,1349.1604938271605,1074.3333333333333) translate(0 14.222222222222223)"/><path d="M1360.97 1363.36h-1.94v-13.3h1.94z" stroke="#e81313" stroke-width=".05" fill="#e81313"/><path d="M1360 1349.05l.97-.07v1.1h-1.94v-1.1z" fill="#e81313"/><path stroke="#e81313" stroke-width=".05" fill="#e81313"/><path d="M1360 1395.76l-3.6-11.07h7.2z" fill="#e81313"/><path d="M1360 1398.92l-4.62-14.23h2.05l2.57 7.9 2.57-7.9h2.05z" stroke="#e81313" stroke-width=".05" fill="#e81313"/><use xlink:href="#e" transform="matrix(1,0,0,1,1349.1604938271605,1363.356738206892) translate(0 14.222222222222223)"/><path d="M1305 1406a6 6 0 0 1 6-6h98a6 6 0 0 1 6 6v68a6 6 0 0 1-6 6h-98a6 6 0 0 1-6-6z" stroke="#282c33" stroke-width="2" fill="#fff"/><use xlink:href="#f" transform="matrix(1,0,0,1,1317,1412) translate(21.88888888888889 31.77777777777778)"/><path d="M1860 516a6 6 0 0 1 6-6h98a6 6 0 0 1 6 6v68a6 6 0 0 1-6 6h-98a6 6 0 0 1-6-6z" stroke="#282c33" stroke-width="2" fill="#fff"/><use xlink:href="#f" transform="matrix(1,0,0,1,1872,522) translate(21.88888888888889 31.77777777777778)"/><path d="M1860 873.5a6 6 0 0 1 6-6h98a6 6 0 0 1 6 6v68a6 6 0 0 1-6 6h-98a6 6 0 0 1-6-6z" stroke="#282c33" stroke-width="2" fill="#fff"/><use xlink:href="#f" transform="matrix(1,0,0,1,1872,879.5) translate(21.88888888888889 31.77777777777778)"/><path d="M1860 1228.5a6 6 0 0 1 6-6h98a6 6 0 0 1 6 6v68a6 6 0 0 1-6 6h-98a6 6 0 0 1-6-6z" stroke="#282c33" stroke-width="2" fill="#fff"/><use xlink:href="#f" transform="matrix(1,0,0,1,1872,1234.5) translate(21.88888888888889 31.77777777777778)"/><path d="M1798.95 907.5h41.55" stroke="#008a0e" stroke-width="2" fill="none"/><path d="M1798.98 908.48h-1.12l.1-.98-.1-.98h1.12z" stroke="#008a0e" stroke-width=".05" fill="#008a0e"/><path d="M1855.76 907.5l-14.26 4.63v-9.26z" stroke="#008a0e" stroke-width="2" fill="#008a0e"/><use xlink:href="#d" transform="matrix(1,0,0,1,1815.6867643762696,916.1352549156242) translate(0 14.222222222222223)"/><path d="M1798.95 550h41.55" stroke="#008a0e" stroke-width="2" fill="none"/><path d="M1798.98 550.98h-1.12l.1-.98-.1-.98h1.12z" stroke="#008a0e" stroke-width=".05" fill="#008a0e"/><path d="M1855.76 550l-14.26 4.63v-9.26z" stroke="#008a0e" stroke-width="2" fill="#008a0e"/><use xlink:href="#d" transform="matrix(1,0,0,1,1815.6867643762696,558.6352549156243) translate(0 14.222222222222223)"/><path d="M1798.95 1262.5h41.55" stroke="#008a0e" stroke-width="2" fill="none"/><path d="M1798.98 1263.47h-1.12l.1-.97-.1-.97h1.12z" stroke="#008a0e" stroke-width=".05" fill="#008a0e"/><path d="M1855.76 1262.5l-14.26 4.63v-9.27z" stroke="#008a0e" stroke-width="2" fill="#008a0e"/><use xlink:href="#d" transform="matrix(1,0,0,1,1815.6867643762696,1271.135254915624) translate(0 14.222222222222223)"/><path d="M1625 1046a6 6 0 0 1 6-6h98a6 6 0 0 1 6 6v68a6 6 0 0 1-6 6h-98a6 6 0 0 1-6-6z" stroke="#282c33" stroke-width="2" fill="#fff"/><use xlink:href="#w" transform="matrix(1,0,0,1,1637,1052) translate(3 31.77777777777778)"/><use xlink:href="#i" transform="matrix(1,0,0,1,1637,1052) translate(40.77777777777778 31.77777777777778)"/><path d="M1680.97 1005.86h-1.94v-10.8h1.94z" stroke="#e81313" stroke-width=".05" fill="#e81313"/><path d="M1680 994.05l.97-.06v1.07h-1.94v-1.1z" fill="#e81313"/><path stroke="#e81313" stroke-width=".05" fill="#e81313"/><path d="M1680 1035.76l-2.8-8.57h5.6z" fill="#e81313"/><path d="M1680 1038.92l-3.8-11.73h2.04l1.76 5.4 1.76-5.4h2.05z" stroke="#e81313" stroke-width=".05" fill="#e81313"/><use xlink:href="#e" transform="matrix(1,0,0,1,1669.1604938271605,1005.8567382068921) translate(0 14.222222222222223)"/><path d="M1625 689.45a6 6 0 0 1 6-6h98a6 6 0 0 1 6 6v68a6 6 0 0 1-6 6h-98a6 6 0 0 1-6-6z" stroke="#282c33" stroke-width="2" fill="#fff"/><use xlink:href="#x" transform="matrix(1,0,0,1,1637,695.4532402528822) translate(3 31.77777777777778)"/><use xlink:href="#i" transform="matrix(1,0,0,1,1637,695.4532402528822) translate(40.77777777777778 31.77777777777778)"/><path d="M1680.97 649.3h-1.94v-10.8h1.94z" stroke="#e81313" stroke-width=".05" fill="#e81313"/><path d="M1680.97 638.53h-1.94v-1.03h1.94z" stroke="#e81313" stroke-width=".05" fill="#e81313"/><path d="M1680 679.22l-2.8-8.58h5.6z" fill="#e81313"/><path d="M1680 682.37l-3.8-11.73h2.04l1.76 5.42 1.76-5.42h2.05z" stroke="#e81313" stroke-width=".05" fill="#e81313"/><use xlink:href="#e" transform="matrix(1,0,0,1,1669.1604938271605,649.3099784597742) translate(0 14.222222222222223)"/><path d="M1625 1401.95a6 6 0 0 1 6-6h98a6 6 0 0 1 6 6v68a6 6 0 0 1-6 6h-98a6 6 0 0 1-6-6z" stroke="#282c33" stroke-width="2" fill="#fff"/><use xlink:href="#y" transform="matrix(1,0,0,1,1637,1407.9532402528823) translate(3 31.77777777777778)"/><use xlink:href="#i" transform="matrix(1,0,0,1,1637,1407.9532402528823) translate(40.77777777777778 31.77777777777778)"/><path d="M1680.97 1361.8h-1.94V1351h1.94z" stroke="#e81313" stroke-width=".05" fill="#e81313"/><path d="M1680.97 1351.03h-1.94V1350h1.94z" stroke="#e81313" stroke-width=".05" fill="#e81313"/><path d="M1680 1391.72l-2.8-8.58h5.6z" fill="#e81313"/><path d="M1680 1394.87l-3.8-11.73h2.04l1.76 5.42 1.76-5.42h2.05z" stroke="#e81313" stroke-width=".05" fill="#e81313"/><use xlink:href="#e" transform="matrix(1,0,0,1,1669.1604938271605,1361.8099784597741) translate(0 14.222222222222223)"/><path d="M1010.15 1903.54a8.23 8.23 0 0 1 9.7 0l110.3 80.42a4.38 4.38 0 0 1 0 7.08l-110.3 80.43a8.23 8.23 0 0 1-9.7 0l-110.3-80.43a4.38 4.38 0 0 1 0-7.08z" stroke="#282c33" stroke-width="2" fill="#fff"/><use xlink:href="#z" transform="matrix(1,0,0,1,900,1905) translate(72.87537037037038 84.80902777777777)"/><path d="M1010.15 2261.03a8.23 8.23 0 0 1 9.7 0l110.3 80.43a4.38 4.38 0 0 1 0 7.07l-110.3 80.43a8.23 8.23 0 0 1-9.7 0l-110.3-80.43a4.38 4.38 0 0 1 0-7.07z" stroke="#282c33" stroke-width="2" fill="#fff"/><use xlink:href="#A" transform="matrix(1,0,0,1,900,2262.5) translate(72.87537037037038 84.80902777777777)"/><path d="M1010.15 2616.03a8.23 8.23 0 0 1 9.7 0l110.3 80.43a4.38 4.38 0 0 1 0 7.07l-110.3 80.43a8.23 8.23 0 0 1-9.7 0l-110.3-80.43a4.38 4.38 0 0 1 0-7.07z" stroke="#282c33" stroke-width="2" fill="#fff"/><use xlink:href="#B" transform="matrix(1,0,0,1,900,2617.5) translate(72.87537037037038 84.80902777777777)"/><path d="M1330.15 1903.54a8.23 8.23 0 0 1 9.7 0l110.3 80.42a4.38 4.38 0 0 1 0 7.08l-110.3 80.43a8.23 8.23 0 0 1-9.7 0l-110.3-80.43a4.38 4.38 0 0 1 0-7.08z" stroke="#282c33" stroke-width="2" fill="#fff"/><use xlink:href="#C" transform="matrix(1,0,0,1,1220,1905) translate(38.43092592592593 84.80902777777777)"/><use xlink:href="#D" transform="matrix(1,0,0,1,1220,1905) translate(107.31981481481482 84.80902777777777)"/><path d="M1330.15 2261.03a8.23 8.23 0 0 1 9.7 0l110.3 80.43a4.38 4.38 0 0 1 0 7.07l-110.3 80.43a8.23 8.23 0 0 1-9.7 0l-110.3-80.43a4.38 4.38 0 0 1 0-7.07z" stroke="#282c33" stroke-width="2" fill="#fff"/><use xlink:href="#C" transform="matrix(1,0,0,1,1220,2262.5) translate(38.43092592592593 84.80902777777777)"/><use xlink:href="#E" transform="matrix(1,0,0,1,1220,2262.5) translate(107.31981481481482 84.80902777777777)"/><path d="M1330.15 2616.03a8.23 8.23 0 0 1 9.7 0l110.3 80.43a4.38 4.38 0 0 1 0 7.07l-110.3 80.43a8.23 8.23 0 0 1-9.7 0l-110.3-80.43a4.38 4.38 0 0 1 0-7.07z" stroke="#282c33" stroke-width="2" fill="#fff"/><use xlink:href="#C" transform="matrix(1,0,0,1,1220,2617.5) translate(38.43092592592593 84.80902777777777)"/><use xlink:href="#F" transform="matrix(1,0,0,1,1220,2617.5) translate(107.31981481481482 84.80902777777777)"/><path d="M1133.95 1987.5h64.6" stroke="#008a0e" stroke-width="2" fill="none"/><path d="M1133.98 1988.47h-1.12l.1-.97-.1-.97h1.12z" stroke="#008a0e" stroke-width=".05" fill="#008a0e"/><path d="M1213.8 1987.5l-14.26 4.63v-9.27z" stroke="#008a0e" stroke-width="2" fill="#008a0e"/><use xlink:href="#d" transform="matrix(1,0,0,1,1162.20987654321,1991.5) translate(0 14.222222222222223)"/><path d="M1133.95 2345h64.6" stroke="#008a0e" stroke-width="2" fill="none"/><path d="M1133.98 2345.97h-1.12l.1-.97-.1-.97h1.12z" stroke="#008a0e" stroke-width=".05" fill="#008a0e"/><path d="M1213.8 2345l-14.26 4.64v-9.28z" stroke="#008a0e" stroke-width="2" fill="#008a0e"/><use xlink:href="#d" transform="matrix(1,0,0,1,1162.20987654321,2349) translate(0 14.222222222222223)"/><path d="M1133.95 2700h64.6" stroke="#008a0e" stroke-width="2" fill="none"/><path d="M1133.98 2700.97h-1.12l.1-.97-.1-.97h1.12z" stroke="#008a0e" stroke-width=".05" fill="#008a0e"/><path d="M1213.8 2700l-14.26 4.64v-9.28z" stroke="#008a0e" stroke-width="2" fill="#008a0e"/><use xlink:href="#d" transform="matrix(1,0,0,1,1162.20987654321,2704) translate(0 14.222222222222223)"/><path d="M1015.98 2239.95H1014v-63.03h1.96zm0-84.37H1014v-80.53h1.96z" stroke="#e81313" stroke-width=".05" fill="#e81313"/><path d="M1015 2074.05l.98-.07v1.1H1014v-1.1z" fill="#e81313"/><path stroke="#e81313" stroke-width=".05" fill="#e81313"/><path d="M1015 2255.22l-4.63-14.27h9.26z" fill="#e81313"/><path d="M1015 2258.37l-5.98-18.4h11.96zm-3.3-16.44l3.3 10.13 3.3-10.13z" stroke="#e81313" stroke-width=".05" fill="#e81313"/><use xlink:href="#e" transform="matrix(1,0,0,1,1004.1604938271605,2155.5833333333335) translate(0 14.222222222222223)"/><path d="M1015.98 2594.95H1014v-61.78h1.96zm0-83.12H1014v-79.28h1.96z" stroke="#e81313" stroke-width=".05" fill="#e81313"/><path d="M1015 2431.55l.98-.07v1.1H1014v-1.1z" fill="#e81313"/><path stroke="#e81313" stroke-width=".05" fill="#e81313"/><path d="M1015 2610.22l-4.63-14.27h9.26z" fill="#e81313"/><path d="M1015 2613.37l-5.98-18.4h11.96zm-3.3-16.44l3.3 10.13 3.3-10.13z" stroke="#e81313" stroke-width=".05" fill="#e81313"/><use xlink:href="#e" transform="matrix(1,0,0,1,1004.1604938271605,2511.8333333333335) translate(0 14.222222222222223)"/><path d="M1015.98 2962.45H1014v-68.03h1.96zm0-89.37H1014v-85.53h1.96z" stroke="#e81313" stroke-width=".05" fill="#e81313"/><path d="M1015 2786.55l.98-.07v1.1H1014v-1.1z" fill="#e81313"/><path stroke="#e81313" stroke-width=".05" fill="#e81313"/><path d="M1015 2977.72l-4.63-14.27h9.26z" fill="#e81313"/><path d="M1015 2980.87l-5.98-18.4h11.96zm-3.3-16.44l3.3 10.13 3.3-10.13z" stroke="#e81313" stroke-width=".05" fill="#e81313"/><use xlink:href="#e" transform="matrix(1,0,0,1,1004.1604938271605,2873.0833333333335) translate(0 14.222222222222223)"/><path d="M1515 1953.5a6 6 0 0 1 6-6h98a6 6 0 0 1 6 6v68a6 6 0 0 1-6 6h-98a6 6 0 0 1-6-6z" stroke="#282c33" stroke-width="2" fill="#fff"/><use xlink:href="#G" transform="matrix(1,0,0,1,1527,1959.5) translate(21.88888888888889 31.77777777777778)"/><path d="M1515 2311a6 6 0 0 1 6-6h98a6 6 0 0 1 6 6v68a6 6 0 0 1-6 6h-98a6 6 0 0 1-6-6z" stroke="#282c33" stroke-width="2" fill="#fff"/><use xlink:href="#G" transform="matrix(1,0,0,1,1527,2317) translate(21.88888888888889 31.77777777777778)"/><path d="M1515 2666a6 6 0 0 1 6-6h98a6 6 0 0 1 6 6v68a6 6 0 0 1-6 6h-98a6 6 0 0 1-6-6z" stroke="#282c33" stroke-width="2" fill="#fff"/><use xlink:href="#G" transform="matrix(1,0,0,1,1527,2672) translate(21.88888888888889 31.77777777777778)"/><path d="M1453.95 2345h41.55" stroke="#008a0e" stroke-width="2" fill="none"/><path d="M1453.98 2345.97h-1.12l.1-.97-.1-.97h1.12z" stroke="#008a0e" stroke-width=".05" fill="#008a0e"/><path d="M1510.76 2345l-14.26 4.64v-9.28z" stroke="#008a0e" stroke-width="2" fill="#008a0e"/><use xlink:href="#d" transform="matrix(1,0,0,1,1470.6867643762696,2353.6352549156245) translate(0 14.222222222222223)"/><path d="M1453.95 1987.5h41.55" stroke="#008a0e" stroke-width="2" fill="none"/><path d="M1453.98 1988.47h-1.12l.1-.97-.1-.97h1.12z" stroke="#008a0e" stroke-width=".05" fill="#008a0e"/><path d="M1510.76 1987.5l-14.26 4.63v-9.27z" stroke="#008a0e" stroke-width="2" fill="#008a0e"/><use xlink:href="#d" transform="matrix(1,0,0,1,1470.6867643762696,1996.135254915624) translate(0 14.222222222222223)"/><path d="M1453.95 2700h41.55" stroke="#008a0e" stroke-width="2" fill="none"/><path d="M1453.98 2700.97h-1.12l.1-.97-.1-.97h1.12z" stroke="#008a0e" stroke-width=".05" fill="#008a0e"/><path d="M1510.76 2700l-14.26 4.64v-9.28z" stroke="#008a0e" stroke-width="2" fill="#008a0e"/><use xlink:href="#d" transform="matrix(1,0,0,1,1470.6867643762696,2708.6352549156245) translate(0 14.222222222222223)"/><path d="M1280 2483.5a6 6 0 0 1 6-6h98a6 6 0 0 1 6 6v68a6 6 0 0 1-6 6h-98a6 6 0 0 1-6-6z" stroke="#282c33" stroke-width="2" fill="#fff"/><use xlink:href="#H" transform="matrix(1,0,0,1,1292,2489.5) translate(3 31.77777777777778)"/><use xlink:href="#I" transform="matrix(1,0,0,1,1292,2489.5) translate(40.77777777777778 31.77777777777778)"/><path d="M1335.97 2443.36h-1.94v-10.8h1.94z" stroke="#e81313" stroke-width=".05" fill="#e81313"/><path d="M1335 2431.55l.97-.07v1.1h-1.94v-1.1z" fill="#e81313"/><path stroke="#e81313" stroke-width=".05" fill="#e81313"/><path d="M1335 2473.26l-2.8-8.57h5.6z" fill="#e81313"/><path d="M1335 2476.42l-3.8-11.73h2.04l1.76 5.4 1.76-5.4h2.05z" stroke="#e81313" stroke-width=".05" fill="#e81313"/><use xlink:href="#e" transform="matrix(1,0,0,1,1324.1604938271605,2443.356738206892) translate(0 14.222222222222223)"/><path d="M1280 2126.95a6 6 0 0 1 6-6h98a6 6 0 0 1 6 6v68a6 6 0 0 1-6 6h-98a6 6 0 0 1-6-6z" stroke="#282c33" stroke-width="2" fill="#fff"/><use xlink:href="#J" transform="matrix(1,0,0,1,1292,2132.953240252882) translate(3 31.77777777777778)"/><use xlink:href="#I" transform="matrix(1,0,0,1,1292,2132.953240252882) translate(40.77777777777778 31.77777777777778)"/><path d="M1335.97 2086.8h-1.94V2076h1.94z" stroke="#e81313" stroke-width=".05" fill="#e81313"/><path d="M1335.97 2076.03h-1.94V2075h1.94z" stroke="#e81313" stroke-width=".05" fill="#e81313"/><path d="M1335 2116.72l-2.8-8.58h5.6z" fill="#e81313"/><path d="M1335 2119.87l-3.8-11.73h2.04l1.76 5.42 1.76-5.42h2.05z" stroke="#e81313" stroke-width=".05" fill="#e81313"/><use xlink:href="#e" transform="matrix(1,0,0,1,1324.1604938271605,2086.809978459774) translate(0 14.222222222222223)"/><path d="M1280 2839.45a6 6 0 0 1 6-6h98a6 6 0 0 1 6 6v68a6 6 0 0 1-6 6h-98a6 6 0 0 1-6-6z" stroke="#282c33" stroke-width="2" fill="#fff"/><use xlink:href="#K" transform="matrix(1,0,0,1,1292,2845.453240252882) translate(3 31.77777777777778)"/><use xlink:href="#I" transform="matrix(1,0,0,1,1292,2845.453240252882) translate(40.77777777777778 31.77777777777778)"/><path d="M1335.97 2799.3h-1.94v-10.8h1.94z" stroke="#e81313" stroke-width=".05" fill="#e81313"/><path d="M1335.97 2788.53h-1.94v-1.03h1.94z" stroke="#e81313" stroke-width=".05" fill="#e81313"/><path d="M1335 2829.22l-2.8-8.58h5.6z" fill="#e81313"/><path d="M1335 2832.37l-3.8-11.73h2.04l1.76 5.42 1.76-5.42h2.05z" stroke="#e81313" stroke-width=".05" fill="#e81313"/><use xlink:href="#e" transform="matrix(1,0,0,1,1324.1604938271605,2799.309978459774) translate(0 14.222222222222223)"/><path d="M1215 1593.5a6 6 0 0 1 6-6h163a6 6 0 0 1 6 6v68a6 6 0 0 1-6 6h-163a6 6 0 0 1-6-6z" stroke="#282c33" stroke-width="2" fill="#fff"/><use xlink:href="#L" transform="matrix(1,0,0,1,1227,1599.5) translate(11.611111111111114 31.77777777777778)"/><use xlink:href="#M" transform="matrix(1,0,0,1,1227,1599.5) translate(80.5 31.77777777777778)"/><use xlink:href="#N" transform="matrix(1,0,0,1,1227,1599.5) translate(128.27777777777777 31.77777777777778)"/><path d="M932.5 1773.5a6 6 0 0 1 6-6h163a6 6 0 0 1 6 6v68a6 6 0 0 1-6 6h-163a6 6 0 0 1-6-6z" stroke="#282c33" stroke-width="2" fill="#fff"/><use xlink:href="#L" transform="matrix(1,0,0,1,944.5,1779.5) translate(11.611111111111114 31.77777777777778)"/><use xlink:href="#M" transform="matrix(1,0,0,1,944.5,1779.5) translate(80.5 31.77777777777778)"/><use xlink:href="#O" transform="matrix(1,0,0,1,944.5,1779.5) translate(128.27777777777777 31.77777777777778)"/><path d="M1020 1715.05V1748" stroke="#e81313" stroke-width="2" fill="none"/><path d="M1020 1714.05l.98-.07v1.1H1019v-1.1z" stroke="#e81313" stroke-width=".05" fill="#e81313"/><path d="M1020 1763.26l-4.63-14.26h9.26z" stroke="#e81313" stroke-width="2" fill="#e81313"/><use xlink:href="#e" transform="matrix(1,0,0,1,1028,1720.9866992264856) translate(0 14.222222222222223)"/><path d="M1138.95 1627.5h56.55" stroke="#008a0e" stroke-width="2" fill="none"/><path d="M1138.98 1628.47h-1.12l.1-.97-.1-.97h1.12z" stroke="#008a0e" stroke-width=".05" fill="#008a0e"/><path d="M1210.76 1627.5l-14.26 4.63v-9.27z" stroke="#008a0e" stroke-width="2" fill="#008a0e"/><use xlink:href="#d" transform="matrix(1,0,0,1,1163.1867643762694,1631.4999999999998) translate(0 14.222222222222223)"/><path d="M798.95 1987.5h79.6" stroke="#008a0e" stroke-width="2" fill="none"/><path d="M798.98 1988.47h-1.12l.1-.97-.1-.97h1.12z" stroke="#008a0e" stroke-width=".05" fill="#008a0e"/><path d="M893.8 1987.5l-14.26 4.63v-9.27z" stroke="#008a0e" stroke-width="2" fill="#008a0e"/><use xlink:href="#d" transform="matrix(1,0,0,1,834.7098765432099,1991.5) translate(0 14.222222222222223)"/><path d="M680.98 2089.3H679V2076H681z" stroke="#e81313" stroke-width=".05" fill="#e81313"/><path d="M680.98 2076.03H679V2075H681z" stroke="#e81313" stroke-width=".05" fill="#e81313"/><path d="M680 2121.72l-3.6-11.08h7.2z" fill="#e81313"/><path d="M680 2124.87l-4.62-14.23h2.05l2.57 7.92 2.57-7.92h2.05z" stroke="#e81313" stroke-width=".05" fill="#e81313"/><g><use xlink:href="#e" transform="matrix(1,0,0,1,669.1604938271605,2089.309978459774) translate(0 14.222222222222223)"/></g><path d="M625 2131.95a6 6 0 0 1 6-6h98a6 6 0 0 1 6 6v68a6 6 0 0 1-6 6h-98a6 6 0 0 1-6-6z" stroke="#282c33" stroke-width="2" fill="#fff"/><g><use xlink:href="#G" transform="matrix(1,0,0,1,637,2137.953240252882) translate(21.88888888888889 31.77777777777778)"/></g><path d="M1010.15 2983.53a8.23 8.23 0 0 1 9.7 0l110.3 80.43a4.38 4.38 0 0 1 0 7.07l-110.3 80.43a8.23 8.23 0 0 1-9.7 0l-110.3-80.43a4.38 4.38 0 0 1 0-7.07z" stroke="#282c33" stroke-width="2" fill="#fff"/><g><use xlink:href="#P" transform="matrix(1,0,0,1,900,2985) translate(33.43092592592593 84.80902777777777)"/><use xlink:href="#Q" transform="matrix(1,0,0,1,900,2985) translate(81.2087037037037 84.80902777777777)"/></g><path d="M1015.98 3220.5H1014v-13.3h1.96zm0-34.64H1014v-30.8h1.96z" stroke="#e81313" stroke-width=".05" fill="#e81313"/><path d="M1015 3154.05l.98-.07v1.1H1014v-1.1z" fill="#e81313"/><path stroke="#e81313" stroke-width=".05" fill="#e81313"/><path d="M1015 3235.76l-4.63-14.26h9.26z" fill="#e81313"/><path d="M1015 3238.92l-5.98-18.4h11.96zm-3.3-16.45l3.3 10.14 3.3-10.13z" stroke="#e81313" stroke-width=".05" fill="#e81313"/><g><use xlink:href="#e" transform="matrix(1,0,0,1,1004.1604938271605,3185.8567382068923) translate(0 14.222222222222223)"/></g><path d="M1133.95 3067.5h86.55" stroke="#008a0e" stroke-width="2" fill="none"/><path d="M1133.98 3068.47h-1.12l.1-.97-.1-.97h1.12z" stroke="#008a0e" stroke-width=".05" fill="#008a0e"/><path d="M1235.76 3067.5l-14.26 4.64v-9.28z" stroke="#008a0e" stroke-width="2" fill="#008a0e"/><g><use xlink:href="#d" transform="matrix(1,0,0,1,1163.2204129416773,3071.5) translate(0 14.222222222222223)"/></g><path d="M1240 3033.5a6 6 0 0 1 6-6h88a6 6 0 0 1 6 6v68a6 6 0 0 1-6 6h-88a6 6 0 0 1-6-6z" stroke="#282c33" stroke-width="2" fill="#fff"/><g><use xlink:href="#G" transform="matrix(1,0,0,1,1252,3039.5) translate(16.88888888888889 31.77777777777778)"/></g><path d="M940 3246a6 6 0 0 1 6-6h138a6 6 0 0 1 6 6v68a6 6 0 0 1-6 6H946a6 6 0 0 1-6-6z" stroke="#282c33" stroke-width="2" fill="#fff"/><g><use xlink:href="#R" transform="matrix(1,0,0,1,952,3252) translate(7.444444444444443 31.77777777777778)"/><use xlink:href="#S" transform="matrix(1,0,0,1,952,3252) translate(76.33333333333333 31.77777777777778)"/></g><defs><path fill="#3a414a" d="M223-298c22 2 48 7 67 11-9 74 4 167-9 242l-16 2-2-64c-24 0-41 3-62 6l-9-18C173-68 57-71 57-138c0-75 139-72 140 0 0 6-1 11-4 17 20 5 49 2 70 1v-52c-24 0-43 3-63 7l-10-21c20 5 51 2 73 1v-72c-3-21-21-25-44-32zm-96 116c-26-1-45 17-44 42 1 27 17 44 44 44s44-17 44-44c0-26-17-41-44-42zm-52-92c29 8 68 6 100 1l-5 17-84 3zm-53 44c63 8 144 3 204-6l-3 20-190 8zM179 27c-22-1-53 11-53-14 2-37 3-68-31-69 7-17 39-1 57-2-4 16-1 40-2 60-2 21 32 9 49 12L310 4l-4 22" id="T"/><path fill="#3a414a" d="M30-231c41 7 93 4 130-5l8 8c-10 34-25 61-43 87 23 21 44 46 70 64l-19 17-58-72C93-97 61-68 25-44l-7-6c54-41 97-94 118-166-31 2-66 1-93 7zm204-41c-8 34-3 82-4 123 17-1 33-1 48-4-5-55 21-133-39-136l4-9 62 11c-13 98 6 225-10 327l-14 2-3-179-48 2-6 163-14 2-2-272c-2-21-14-25-36-31l4-9c22 1 39 6 58 10" id="U"/><g id="a"><use transform="matrix(0.06172839506172839,0,0,0.06172839506172839,0,0)" xlink:href="#T"/><use transform="matrix(0.06172839506172839,0,0,0.06172839506172839,21.11111111111111,0)" xlink:href="#U"/></g><path fill="#3a414a" d="M275-287c-8 32-3 79-4 118 23-1 47-4 70-8l-3 22h-67c1 24-3 45-6 65l-15 2c-6-51-1-113-3-169-1-22-20-25-43-32l3-9c22 2 49 7 68 11zM244-59c-60-1-113 5-168 9L65-72c64 9 139-2 205-4-5 35 2 80-8 112l-15 3c-3-31-3-64-3-98zM47-148c0-72 140-73 140 0 0 38-32 55-70 55-39 0-70-19-70-55zm70-44c-26 0-44 16-44 43 0 26 18 42 44 42 27 0 45-17 45-42 0-27-18-43-45-43zM13-235c64 9 143 1 204-6l-4 20-189 8zm53-43c28 9 67 6 99 1l-4 17-85 3" id="V"/><path fill="#3a414a" d="M211-161c-8 36-2 87-4 130 44-1 86-5 125-9l-4 23-278 5-26 3-10-24 93 4v-94c1-19-9-23-26-25 5-18 36-5 53-4-8 33-2 82-4 123l55-1v-102c1-20-13-24-28-28 7-16 36-1 54-1zM56-254c74 10 154-1 227-4 12 48-19 125-32 171h-14c10-45 16-102 20-153l-158 5-31 4" id="W"/><path fill="#3a414a" d="M7-162l227 2c8-30 13-64 14-101l-145 5-30 4-13-23c71 4 150 6 214-5 15 30-15 86-23 119l85-7-3 23-290 5-27 3zm264 53c-10 39 2 99-10 141-10 2-18 4-16-11-41-2-88 2-129 3l-3 12-14 3c-5-31-3-72-3-108 0-20-12-23-28-27l3-9 51 7c-1 14-4 26-3 42l125-5c4-31-7-44-32-47 7-19 40-2 59-1zM117 10c41 1 89-2 127-5v-50l-125 2" id="X"/><path fill="#3a414a" d="M117-262c4-14 25 0 37 0l-5 14c37 5 68 24 68 64 0 43-36 64-80 64s-78-22-78-64 33-62 74-65c-1-8-8-9-16-13zm21 127c32 0 54-18 54-51 0-31-22-51-54-51s-54 20-54 51c0 32 22 51 54 51zm94-163c22 2 48 7 67 11-10 101 6 226-10 327l-14 2c-5-35-2-81-3-121L131-55 38-45 25-68c84 10 173-7 247-21v-168c-3-21-21-25-44-32" id="Y"/><g id="b"><use transform="matrix(0.06172839506172839,0,0,0.06172839506172839,0,0)" xlink:href="#V"/><use transform="matrix(0.06172839506172839,0,0,0.06172839506172839,21.11111111111111,0)" xlink:href="#W"/><use transform="matrix(0.06172839506172839,0,0,0.06172839506172839,42.22222222222222,0)" xlink:href="#X"/><use transform="matrix(0.06172839506172839,0,0,0.06172839506172839,63.33333333333333,0)" xlink:href="#Y"/></g><path fill="#3a414a" d="M86-144c2 28-14 74 14 74 57 0 118-16 165-31v-156c-2-22-21-25-44-32l4-9c23 2 49 7 68 11-12 98 4 223-10 327l-15 2-3-133C215-74 152-61 93-51c-63 11 0-95-56-102l3-8c44 5 85 5 127 1l4-69c-39-2-82 2-118 7l-12-22c48 7 110 6 159 0-6 26-9 55-13 83l13-2-2 17c-44-2-77 1-112 2" id="Z"/><path fill="#3a414a" d="M14-39l209 3 20-102 10-98-154 6-31 4-12-23c70 8 158 4 223-5 12 63-27 155-41 217l94-8-4 23-278 5-26 3" id="aa"/><path fill="#3a414a" d="M113-242c-1-8-6-10-15-13 4-14 23 0 36-1-2 5-5 8-5 14 38 5 67 25 67 64 0 43-34 64-78 64s-78-21-78-64c0-40 32-61 73-64zm5 113c32 0 53-18 53-51 0-31-21-51-53-51s-53 20-53 51c0 33 21 51 53 51zm147-128c-3-21-21-25-44-32l4-9c22 2 48 7 67 11-12 70 4 167-9 242l-16 2zM182 27c-22-1-53 11-53-14 1-39 5-75-31-76 5-18 37-1 56-2-2 21-2 44-2 67-1 20 31 9 49 12 37-3 79-3 111-10l-4 22" id="ab"/><path fill="#3a414a" d="M206-298c22 2 48 7 67 11-6 42-2 96-3 144 23-1 47-4 70-8l-4 22h-66l-6 169-15 2-3-76v-223c-3-21-21-25-44-32zM26-233c53 0 110 6 155-5l8 8C158-145 99-77 24-37l-8-8c64-39 114-97 139-173l-115 7" id="ac"/><path fill="#3a414a" d="M19-231c61-19 146-3 123 76-8 29-32 42-62 48l-3 45H63l-4-58c33-4 57-15 54-56 6-47-42-58-77-39l-6 29H19v-45zM72-37c14 0 21 9 21 21S84 5 72 5 50-2 51-16c0-13 8-21 21-21" id="ad"/><g id="c"><use transform="matrix(0.06172839506172839,0,0,0.06172839506172839,0,0)" xlink:href="#Z"/><use transform="matrix(0.06172839506172839,0,0,0.06172839506172839,21.11111111111111,0)" xlink:href="#aa"/><use transform="matrix(0.06172839506172839,0,0,0.06172839506172839,42.22222222222222,0)" xlink:href="#ab"/><use transform="matrix(0.06172839506172839,0,0,0.06172839506172839,63.33333333333333,0)" xlink:href="#ac"/><use transform="matrix(0.06172839506172839,0,0,0.06172839506172839,84.44444444444444,0)" xlink:href="#ad"/></g><path fill="#333" d="M160-93v75l38 5V0H67v-13l38-5v-74L33-218l-27-5v-13h122v13l-32 5 54 98 52-98-29-5v-13h80v13l-25 5" id="ae"/><path fill="#333" d="M12-83c0-55 22-85 75-86 52-1 66 33 63 88H64c-1 37 6 64 44 63 14 0 28-4 39-6 3 28-28 25-55 27-57 4-80-31-80-86zm90-17c2-26 0-63-27-48-10 9-11 28-11 48h38" id="af"/><path fill="#333" d="M102-142c-14-17-68-15-54 18 24 26 83 17 83 72 0 62-72 62-120 47v-45h12c4 23 16 37 43 37 35 0 39-37 9-46-31-9-65-19-64-61 0-52 59-55 108-45v43h-11" id="ag"/><g id="d"><use transform="matrix(0.04938271604938272,0,0,0.04938271604938272,0,0)" xlink:href="#ae"/><use transform="matrix(0.04938271604938272,0,0,0.04938271604938272,10.814814814814817,0)" xlink:href="#af"/><use transform="matrix(0.04938271604938272,0,0,0.04938271604938272,18.666666666666668,0)" xlink:href="#ag"/></g><path fill="#333" d="M203-218l-32-5v-13h84v13l-30 5V0h-21L59-189v171l32 5V0H7v-13l30-5v-200l-30-5v-13h81L203-85v-133" id="ah"/><path fill="#333" d="M90-170c54-1 76 32 76 87 1 56-23 87-77 87-53 0-75-32-75-87s23-86 76-87zM89-14c28-2 26-38 26-69s3-69-26-69c-27 0-24 39-24 69s-3 66 24 69" id="ai"/><g id="e"><use transform="matrix(0.04938271604938272,0,0,0.04938271604938272,0,0)" xlink:href="#ah"/><use transform="matrix(0.04938271604938272,0,0,0.04938271604938272,12.790123456790125,0)" xlink:href="#ai"/></g><path fill="#3a414a" d="M134-266c-2 5-5 6-5 13 32 5 59 19 65 50 23 2 49 2 72 0v-54c-2-22-20-25-43-32l3-9c23 2 49 7 68 11-11 49 3 121-10 174l-15 2c-4-23-3-53-3-80-23 0-52 3-71 7-7 35-35 54-77 54-44 0-77-21-77-62 0-40 31-59 72-61 1-11-21-10-11-19zm-68 73c-3 55 84 64 101 20 14-36-12-71-49-70-31 1-50 19-52 50zm-2 98l46 7-3 36 59-4c4-29-7-39-29-43l4-9 49 7c-6 39 1 89-8 128 30-29 59-64 70-111 3-13-30-14-16-25 14 4 33 7 46 13-4 19-14 34-23 50 21 24 48 46 74 65l-21 15-59-70c-20 28-44 54-69 75-3-5-8-7-16-5l-1-13-63 2-2 13-13 3c-4-30-3-64-3-98 0-20-7-22-25-27zm41 106c19 0 43-2 61-4v-48l-59 2c0 17 1 36-2 50" id="aj"/><path fill="#3a414a" d="M168-278c-1-8-7-9-15-12 4-14 25 0 38-1l-6 13c36 6 70 21 70 60 0 81-162 81-162 0 0-39 34-58 75-60zm7 106c32 0 55-17 55-47s-24-49-55-49c-32 0-56 17-56 49 0 31 24 47 56 47zM7-129l243 1 86-7-3 23c-103-5-220-1-317 8zm68 53c61 8 131 4 193-1L258 5l13-2-4 20c-43-4-101-2-147-1 0 5-1 11-2 15l-14 2C92 5 112-63 71-67zm165 17l-120 1 1 67 118-3" id="ak"/><g id="f"><use transform="matrix(0.06172839506172839,0,0,0.06172839506172839,0,0)" xlink:href="#aj"/><use transform="matrix(0.06172839506172839,0,0,0.06172839506172839,21.11111111111111,0)" xlink:href="#ak"/></g><path fill="#3a414a" d="M205-298c22 2 48 7 67 11-5 31-2 71-3 106 23-1 47-5 70-8l-4 22h-66l-6 81-16 2c-5-52 1-117-2-173-1-22-21-25-44-32zM189-80c-1-8-7-9-15-12 5-14 23-1 36-1-2 4-5 7-5 13 35 5 64 21 64 59 0 41-33 60-74 60s-73-20-73-60c0-38 29-57 67-59zm6 104c29 0 49-17 49-47 0-29-20-47-49-47-28 0-47 17-48 47 0 31 19 47 48 47zM28-249c47 7 109 5 151-4l9 5C155-171 93-112 19-76l-7-8c60-35 114-83 141-150-37 2-77 1-110 8" id="al"/><path fill="#3a414a" d="M170-80c-2-9-6-10-16-13 7-12 25 0 38 0-2 4-4 8-5 14 36 5 66 19 66 58 0 42-35 60-76 60-42 0-76-20-76-60 0-38 32-55 69-59zm7 105c31 0 52-17 52-48 0-30-23-47-52-47s-51 16-51 47c0 32 22 48 51 48zm3-201c-40 0-98 18-98-18 0-37 7-76-30-76l4-9c64 9 154 6 217-2l-4 22c-52-4-112-3-163 1 5 25-14 71 17 70l152-9-4 22c-30-3-60-1-91-1zM7-136c104 9 230 5 329-7l-3 23-290 6-27 3" id="am"/><path fill="#3a414a" d="M221-259c-50 0-94 6-141 8l-14-21 118 2 73-8 8 9c-22 25-47 45-77 63 34 10 78 19 118 23l-17 21c-36-14-77-23-115-36-38 21-83 38-129 49l-6-7c72-20 136-58 182-103zM146 27c-25 0-56 11-56-14 0-35 3-66-30-66 5-19 39-1 56-3 2 22-17 71 15 70l125-4c15-1 28-2 38-4l-5 22c-44-3-97-1-143-1zm49-190c-5 15-4 37-4 57l105-5c15-1 27-3 40-5l-3 24c-103-5-221-1-317 7l-9-24c51 6 105 5 161 4 1-29 2-55-27-53 4-19 36-4 54-5" id="an"/><g id="g"><use transform="matrix(0.06172839506172839,0,0,0.06172839506172839,0,0)" xlink:href="#al"/><use transform="matrix(0.06172839506172839,0,0,0.06172839506172839,21.11111111111111,0)" xlink:href="#am"/><use transform="matrix(0.06172839506172839,0,0,0.06172839506172839,42.22222222222222,0)" xlink:href="#an"/><use transform="matrix(0.06172839506172839,0,0,0.06172839506172839,63.33333333333333,0)" xlink:href="#ab"/><use transform="matrix(0.06172839506172839,0,0,0.06172839506172839,84.44444444444444,0)" xlink:href="#ac"/><use transform="matrix(0.06172839506172839,0,0,0.06172839506172839,105.55555555555556,0)" xlink:href="#ad"/></g><g id="h"><use transform="matrix(0.06172839506172839,0,0,0.06172839506172839,0,0)" xlink:href="#al"/><use transform="matrix(0.06172839506172839,0,0,0.06172839506172839,21.11111111111111,0)" xlink:href="#am"/></g><path fill="#3a414a" d="M196-254l48 7-11 76 57-5-5 21-220 8-9-22c19 4 42 4 66 4-6-29 6-74-29-73 2-17 32-5 48-5-3 25 2 52 3 77l67-3c0-30 19-72-18-76zM64-278c66 11 150 1 215-6l-5 21h-80l-121 8zM10-111l237 1 87-8-4 23-139-1-6 135-16 2-2-136-148 8" id="ao"/><path fill="#3a414a" d="M165-241c-8 27-21 50-34 73 28 28 58 55 92 80l-21 20-78-89c-25 38-58 72-98 99l-7-7c51-41 93-94 111-167-4-10-16-11-26-18l6-7c22 6 35 7 55 16zm99-16c-3-21-21-25-44-32l4-9c22 2 48 7 67 11-13 98 5 224-10 327l-15 2" id="ap"/><g id="i"><use transform="matrix(0.06172839506172839,0,0,0.06172839506172839,0,0)" xlink:href="#ao"/><use transform="matrix(0.06172839506172839,0,0,0.06172839506172839,21.11111111111111,0)" xlink:href="#ap"/></g><path fill="#3a414a" d="M166-274c-2-7-8-8-16-11 4-15 30-2 38-2-2 6-5 8-5 14 39 5 72 22 72 62 0 45-37 64-83 64s-82-21-82-64c0-40 35-60 76-63zm-49 62c-4 57 90 65 108 20 15-37-13-72-51-71-33 1-55 19-57 51zM10-116c39 2 75 5 115 4l168-6c15-1 28-3 41-5l-4 23-92-1-5 140-16 2-2-142-79 2c-2 43 1 92-6 131l-15 2-2-132-94 6" id="aq"/><path fill="#3a414a" d="M203-234c-13 36-32 67-55 95 27 24 50 42 84 62l-20 19c-24-27-48-47-72-72-29 34-68 64-108 85l-7-7c63-40 118-94 143-171l-87 4-27 4-14-22c52 3 109 5 154-5zm63-23c-3-21-21-25-44-32l4-9c23 2 49 7 68 11-12 98 4 223-10 327l-15 2-3-76v-223" id="ar"/><g id="j"><use transform="matrix(0.06172839506172839,0,0,0.06172839506172839,0,0)" xlink:href="#aq"/><use transform="matrix(0.06172839506172839,0,0,0.06172839506172839,21.11111111111111,0)" xlink:href="#ar"/><use transform="matrix(0.06172839506172839,0,0,0.06172839506172839,42.22222222222222,0)" xlink:href="#an"/><use transform="matrix(0.06172839506172839,0,0,0.06172839506172839,63.33333333333333,0)" xlink:href="#ab"/><use transform="matrix(0.06172839506172839,0,0,0.06172839506172839,84.44444444444444,0)" xlink:href="#ac"/><use transform="matrix(0.06172839506172839,0,0,0.06172839506172839,105.55555555555556,0)" xlink:href="#ad"/></g><path fill="#3a414a" d="M167-270c-5-9-14-12-25-18l6-8c19 5 37 11 56 19-8 13-17 24-27 35 39 22 84 37 131 52l-21 21c-36-22-78-43-118-64-34 34-79 57-127 74l-8-7c56-22 107-53 133-104zM7-136l243 1 86-8-3 23-290 5-27 3zm163 56c-2-9-6-10-16-13 7-12 25 0 38 0-2 4-4 8-5 14 36 5 66 19 66 58 0 42-35 60-76 60-42 0-76-20-76-60 0-38 32-55 69-59zm7 105c31 0 52-17 52-48 0-30-23-47-52-47s-51 16-51 47c0 32 22 48 51 48" id="as"/><g id="k"><use transform="matrix(0.06172839506172839,0,0,0.06172839506172839,0,0)" xlink:href="#as"/><use transform="matrix(0.06172839506172839,0,0,0.06172839506172839,21.11111111111111,0)" xlink:href="#X"/></g><path fill="#3a414a" d="M107-274c2 35-18 90 15 95l161-11-4 22-179 3c-29 0-19-46-19-74 0-24-14-29-34-32l4-10zM7-119c105 10 228 4 329-6l-3 23-290 5-27 3zM192 25c-40-3-96 19-103-13 0-36 5-71-30-71 4-21 38 0 56-3-2 20-2 41-2 63 0 21 33 12 52 12 42 0 91-3 128-8l-4 22c-30-3-65 0-97-2" id="at"/><g id="l"><use transform="matrix(0.06172839506172839,0,0,0.06172839506172839,0,0)" xlink:href="#aj"/><use transform="matrix(0.06172839506172839,0,0,0.06172839506172839,21.11111111111111,0)" xlink:href="#at"/></g><path fill="#3a414a" d="M110-14l48 5v9H32v-9l48-5v-192l-48 17v-10l69-39h9v224" id="au"/><g id="m"><use transform="matrix(0.06172839506172839,0,0,0.06172839506172839,0,0)" xlink:href="#au"/><use transform="matrix(0.06172839506172839,0,0,0.06172839506172839,11.11111111111111,0)" xlink:href="#am"/><use transform="matrix(0.06172839506172839,0,0,0.06172839506172839,32.22222222222222,0)" xlink:href="#ab"/><use transform="matrix(0.06172839506172839,0,0,0.06172839506172839,53.33333333333333,0)" xlink:href="#ac"/><use transform="matrix(0.06172839506172839,0,0,0.06172839506172839,74.44444444444444,0)" xlink:href="#ad"/></g><path fill="#3a414a" d="M24-231c66-21 156 2 128 81C132-92 78-66 39-27h121V0H16v-26l59-54c26-25 47-47 47-97 0-48-47-57-81-37l-6 29H24v-46" id="av"/><g id="n"><use transform="matrix(0.06172839506172839,0,0,0.06172839506172839,0,0)" xlink:href="#av"/><use transform="matrix(0.06172839506172839,0,0,0.06172839506172839,11.11111111111111,0)" xlink:href="#am"/><use transform="matrix(0.06172839506172839,0,0,0.06172839506172839,32.22222222222222,0)" xlink:href="#ab"/><use transform="matrix(0.06172839506172839,0,0,0.06172839506172839,53.33333333333333,0)" xlink:href="#ac"/><use transform="matrix(0.06172839506172839,0,0,0.06172839506172839,74.44444444444444,0)" xlink:href="#ad"/></g><path fill="#3a414a" d="M104-123c39 3 61 21 62 59C167 7 83 12 19-4l-2-50h12c2 29 16 43 51 43 38 0 54-19 54-55 2-43-34-49-75-50v-14c37 0 64-7 64-48 0-47-47-56-81-36l-6 29H24v-46c51-13 135-13 131 51-2 34-20 52-51 57" id="aw"/><g id="o"><use transform="matrix(0.06172839506172839,0,0,0.06172839506172839,0,0)" xlink:href="#aw"/><use transform="matrix(0.06172839506172839,0,0,0.06172839506172839,11.11111111111111,0)" xlink:href="#am"/><use transform="matrix(0.06172839506172839,0,0,0.06172839506172839,32.22222222222222,0)" xlink:href="#ab"/><use transform="matrix(0.06172839506172839,0,0,0.06172839506172839,53.33333333333333,0)" xlink:href="#ac"/><use transform="matrix(0.06172839506172839,0,0,0.06172839506172839,74.44444444444444,0)" xlink:href="#ad"/></g><path fill="#3a414a" d="M130-238l-5 15c35 6 63 23 70 57h72v-91c-3-21-21-25-44-32l4-9c22 2 48 7 67 11-13 98 6 225-10 327l-14 2c-6-59-2-131-3-196-23 0-52 3-71 7-5 41-37 64-82 64-47 0-82-24-82-70 0-44 33-67 77-70-1-9-6-11-15-14 4-13 24-1 36-1zM115-99c35 0 57-22 57-55s-22-56-57-56c-34 0-57 22-57 56s23 55 57 55" id="ax"/><path fill="#3a414a" d="M30-231c39 7 90 4 126-5l9 8c-11 32-24 60-42 86 23 22 44 48 71 66l-20 17-58-73C90-97 60-68 25-44l-7-6c54-41 95-98 115-166-31 2-63 1-90 7zm209-41c-9 93 4 207-10 300l-13 2c-5-52-2-116-3-173-16 1-39 3-53 6l-10-20c18 4 42 2 63 2-5-49 19-116-35-118l3-9c23 1 39 6 58 10zm37 15c-1-22-16-25-39-32l4-9 62 11c-9 102 4 223-9 327l-15 2-3-76v-223" id="ay"/><path fill="#3a414a" d="M98-144c0 21 33 10 52 13l130-9-4 22-83-1v88l139-9-4 23-278 5-26 3-10-24 156 3v-89l-76 3c-14 1-19-7-19-20 0-45 16-111-31-113l4-8c71 9 163 6 230-3l-4 22c-55-4-122-3-176 1v93" id="az"/><g id="p"><use transform="matrix(0.06172839506172839,0,0,0.06172839506172839,0,0)" xlink:href="#ax"/><use transform="matrix(0.06172839506172839,0,0,0.06172839506172839,21.11111111111111,0)" xlink:href="#ay"/><use transform="matrix(0.06172839506172839,0,0,0.06172839506172839,42.22222222222222,0)" xlink:href="#az"/></g><g id="q"><use transform="matrix(0.06172839506172839,0,0,0.06172839506172839,0,0)" xlink:href="#au"/><use transform="matrix(0.06172839506172839,0,0,0.06172839506172839,11.11111111111111,0)" xlink:href="#am"/><use transform="matrix(0.06172839506172839,0,0,0.06172839506172839,32.22222222222222,0)" xlink:href="#ab"/><use transform="matrix(0.06172839506172839,0,0,0.06172839506172839,53.33333333333333,0)" xlink:href="#ac"/><use transform="matrix(0.06172839506172839,0,0,0.06172839506172839,74.44444444444444,0)" xlink:href="#ad"/></g><g id="r"><use transform="matrix(0.06172839506172839,0,0,0.06172839506172839,0,0)" xlink:href="#av"/><use transform="matrix(0.06172839506172839,0,0,0.06172839506172839,11.11111111111111,0)" xlink:href="#am"/><use transform="matrix(0.06172839506172839,0,0,0.06172839506172839,32.22222222222222,0)" xlink:href="#ab"/><use transform="matrix(0.06172839506172839,0,0,0.06172839506172839,53.33333333333333,0)" xlink:href="#ac"/><use transform="matrix(0.06172839506172839,0,0,0.06172839506172839,74.44444444444444,0)" xlink:href="#ad"/></g><g id="s"><use transform="matrix(0.06172839506172839,0,0,0.06172839506172839,0,0)" xlink:href="#aw"/><use transform="matrix(0.06172839506172839,0,0,0.06172839506172839,11.11111111111111,0)" xlink:href="#am"/><use transform="matrix(0.06172839506172839,0,0,0.06172839506172839,32.22222222222222,0)" xlink:href="#ab"/><use transform="matrix(0.06172839506172839,0,0,0.06172839506172839,53.33333333333333,0)" xlink:href="#ac"/><use transform="matrix(0.06172839506172839,0,0,0.06172839506172839,74.44444444444444,0)" xlink:href="#ad"/></g><g id="t"><use transform="matrix(0.06172839506172839,0,0,0.06172839506172839,0,0)" xlink:href="#as"/><use transform="matrix(0.06172839506172839,0,0,0.06172839506172839,21.11111111111111,0)" xlink:href="#X"/><use transform="matrix(0.06172839506172839,0,0,0.06172839506172839,42.22222222222222,0)" xlink:href="#an"/><use transform="matrix(0.06172839506172839,0,0,0.06172839506172839,63.33333333333333,0)" xlink:href="#ab"/><use transform="matrix(0.06172839506172839,0,0,0.06172839506172839,84.44444444444444,0)" xlink:href="#ac"/><use transform="matrix(0.06172839506172839,0,0,0.06172839506172839,105.55555555555556,0)" xlink:href="#ad"/></g><g id="u"><use transform="matrix(0.06172839506172839,0,0,0.06172839506172839,0,0)" xlink:href="#ax"/><use transform="matrix(0.06172839506172839,0,0,0.06172839506172839,21.11111111111111,0)" xlink:href="#ay"/></g><g id="v"><use transform="matrix(0.06172839506172839,0,0,0.06172839506172839,0,0)" xlink:href="#as"/><use transform="matrix(0.06172839506172839,0,0,0.06172839506172839,21.11111111111111,0)" xlink:href="#X"/><use transform="matrix(0.06172839506172839,0,0,0.06172839506172839,42.22222222222222,0)" xlink:href="#an"/><use transform="matrix(0.06172839506172839,0,0,0.06172839506172839,63.33333333333333,0)" xlink:href="#ab"/><use transform="matrix(0.06172839506172839,0,0,0.06172839506172839,84.44444444444444,0)" xlink:href="#ac"/><use transform="matrix(0.06172839506172839,0,0,0.06172839506172839,105.55555555555556,0)" xlink:href="#ad"/></g><g id="w"><use transform="matrix(0.06172839506172839,0,0,0.06172839506172839,0,0)" xlink:href="#av"/><use transform="matrix(0.06172839506172839,0,0,0.06172839506172839,11.11111111111111,0)" xlink:href="#am"/></g><g id="x"><use transform="matrix(0.06172839506172839,0,0,0.06172839506172839,0,0)" xlink:href="#au"/><use transform="matrix(0.06172839506172839,0,0,0.06172839506172839,11.11111111111111,0)" xlink:href="#am"/></g><g id="y"><use transform="matrix(0.06172839506172839,0,0,0.06172839506172839,0,0)" xlink:href="#aw"/><use transform="matrix(0.06172839506172839,0,0,0.06172839506172839,11.11111111111111,0)" xlink:href="#am"/></g><g id="z"><use transform="matrix(0.06172839506172839,0,0,0.06172839506172839,0,0)" xlink:href="#au"/><use transform="matrix(0.06172839506172839,0,0,0.06172839506172839,11.11111111111111,0)" xlink:href="#am"/><use transform="matrix(0.06172839506172839,0,0,0.06172839506172839,32.22222222222222,0)" xlink:href="#ab"/><use transform="matrix(0.06172839506172839,0,0,0.06172839506172839,53.33333333333333,0)" xlink:href="#ac"/><use transform="matrix(0.06172839506172839,0,0,0.06172839506172839,74.44444444444444,0)" xlink:href="#ad"/></g><g id="A"><use transform="matrix(0.06172839506172839,0,0,0.06172839506172839,0,0)" xlink:href="#av"/><use transform="matrix(0.06172839506172839,0,0,0.06172839506172839,11.11111111111111,0)" xlink:href="#am"/><use transform="matrix(0.06172839506172839,0,0,0.06172839506172839,32.22222222222222,0)" xlink:href="#ab"/><use transform="matrix(0.06172839506172839,0,0,0.06172839506172839,53.33333333333333,0)" xlink:href="#ac"/><use transform="matrix(0.06172839506172839,0,0,0.06172839506172839,74.44444444444444,0)" xlink:href="#ad"/></g><g id="B"><use transform="matrix(0.06172839506172839,0,0,0.06172839506172839,0,0)" xlink:href="#aw"/><use transform="matrix(0.06172839506172839,0,0,0.06172839506172839,11.11111111111111,0)" xlink:href="#am"/><use transform="matrix(0.06172839506172839,0,0,0.06172839506172839,32.22222222222222,0)" xlink:href="#ab"/><use transform="matrix(0.06172839506172839,0,0,0.06172839506172839,53.33333333333333,0)" xlink:href="#ac"/><use transform="matrix(0.06172839506172839,0,0,0.06172839506172839,74.44444444444444,0)" xlink:href="#ad"/></g><g id="C"><use transform="matrix(0.06172839506172839,0,0,0.06172839506172839,0,0)" xlink:href="#ax"/><use transform="matrix(0.06172839506172839,0,0,0.06172839506172839,21.11111111111111,0)" xlink:href="#ay"/><use transform="matrix(0.06172839506172839,0,0,0.06172839506172839,42.22222222222222,0)" xlink:href="#az"/></g><g id="D"><use transform="matrix(0.06172839506172839,0,0,0.06172839506172839,0,0)" xlink:href="#au"/><use transform="matrix(0.06172839506172839,0,0,0.06172839506172839,11.11111111111111,0)" xlink:href="#am"/><use transform="matrix(0.06172839506172839,0,0,0.06172839506172839,32.22222222222222,0)" xlink:href="#ab"/><use transform="matrix(0.06172839506172839,0,0,0.06172839506172839,53.33333333333333,0)" xlink:href="#ac"/><use transform="matrix(0.06172839506172839,0,0,0.06172839506172839,74.44444444444444,0)" xlink:href="#ad"/></g><g id="E"><use transform="matrix(0.06172839506172839,0,0,0.06172839506172839,0,0)" xlink:href="#av"/><use transform="matrix(0.06172839506172839,0,0,0.06172839506172839,11.11111111111111,0)" xlink:href="#am"/><use transform="matrix(0.06172839506172839,0,0,0.06172839506172839,32.22222222222222,0)" xlink:href="#ab"/><use transform="matrix(0.06172839506172839,0,0,0.06172839506172839,53.33333333333333,0)" xlink:href="#ac"/><use transform="matrix(0.06172839506172839,0,0,0.06172839506172839,74.44444444444444,0)" xlink:href="#ad"/></g><g id="F"><use transform="matrix(0.06172839506172839,0,0,0.06172839506172839,0,0)" xlink:href="#aw"/><use transform="matrix(0.06172839506172839,0,0,0.06172839506172839,11.11111111111111,0)" xlink:href="#am"/><use transform="matrix(0.06172839506172839,0,0,0.06172839506172839,32.22222222222222,0)" xlink:href="#ab"/><use transform="matrix(0.06172839506172839,0,0,0.06172839506172839,53.33333333333333,0)" xlink:href="#ac"/><use transform="matrix(0.06172839506172839,0,0,0.06172839506172839,74.44444444444444,0)" xlink:href="#ad"/></g><g id="G"><use transform="matrix(0.06172839506172839,0,0,0.06172839506172839,0,0)" xlink:href="#aj"/><use transform="matrix(0.06172839506172839,0,0,0.06172839506172839,21.11111111111111,0)" xlink:href="#ak"/></g><g id="H"><use transform="matrix(0.06172839506172839,0,0,0.06172839506172839,0,0)" xlink:href="#av"/><use transform="matrix(0.06172839506172839,0,0,0.06172839506172839,11.11111111111111,0)" xlink:href="#am"/></g><g id="I"><use transform="matrix(0.06172839506172839,0,0,0.06172839506172839,0,0)" xlink:href="#ao"/><use transform="matrix(0.06172839506172839,0,0,0.06172839506172839,21.11111111111111,0)" xlink:href="#ap"/></g><g id="J"><use transform="matrix(0.06172839506172839,0,0,0.06172839506172839,0,0)" xlink:href="#au"/><use transform="matrix(0.06172839506172839,0,0,0.06172839506172839,11.11111111111111,0)" xlink:href="#am"/></g><g id="K"><use transform="matrix(0.06172839506172839,0,0,0.06172839506172839,0,0)" xlink:href="#aw"/><use transform="matrix(0.06172839506172839,0,0,0.06172839506172839,11.11111111111111,0)" xlink:href="#am"/></g><g id="L"><use transform="matrix(0.06172839506172839,0,0,0.06172839506172839,0,0)" xlink:href="#aq"/><use transform="matrix(0.06172839506172839,0,0,0.06172839506172839,21.11111111111111,0)" xlink:href="#ar"/><use transform="matrix(0.06172839506172839,0,0,0.06172839506172839,42.22222222222222,0)" xlink:href="#an"/></g><path fill="#3a414a" d="M199-234c-13 37-32 67-55 96 27 25 45 42 81 63l-20 18-69-72C107-95 70-66 30-45l-7-7c63-40 117-95 142-171l-86 4-27 4-13-22c51 3 107 5 152-5zm96-53c-13 98 5 224-10 327l-15 2-2-187c-28 1-52 3-71 7l-10-21c21 6 54 2 81 3v-101c-3-21-21-25-44-32l3-9c23 2 49 7 68 11" id="aA"/><g id="M"><use transform="matrix(0.06172839506172839,0,0,0.06172839506172839,0,0)" xlink:href="#aq"/><use transform="matrix(0.06172839506172839,0,0,0.06172839506172839,21.11111111111111,0)" xlink:href="#aA"/></g><use transform="matrix(0.06172839506172839,0,0,0.06172839506172839,0,0)" xlink:href="#av" id="N"/><use transform="matrix(0.06172839506172839,0,0,0.06172839506172839,0,0)" xlink:href="#au" id="O"/><g id="P"><use transform="matrix(0.06172839506172839,0,0,0.06172839506172839,0,0)" xlink:href="#ax"/><use transform="matrix(0.06172839506172839,0,0,0.06172839506172839,21.11111111111111,0)" xlink:href="#ay"/></g><g id="Q"><use transform="matrix(0.06172839506172839,0,0,0.06172839506172839,0,0)" xlink:href="#as"/><use transform="matrix(0.06172839506172839,0,0,0.06172839506172839,21.11111111111111,0)" xlink:href="#X"/><use transform="matrix(0.06172839506172839,0,0,0.06172839506172839,42.22222222222222,0)" xlink:href="#an"/><use transform="matrix(0.06172839506172839,0,0,0.06172839506172839,63.33333333333333,0)" xlink:href="#ab"/><use transform="matrix(0.06172839506172839,0,0,0.06172839506172839,84.44444444444444,0)" xlink:href="#ac"/><use transform="matrix(0.06172839506172839,0,0,0.06172839506172839,105.55555555555556,0)" xlink:href="#ad"/></g><g id="R"><use transform="matrix(0.06172839506172839,0,0,0.06172839506172839,0,0)" xlink:href="#as"/><use transform="matrix(0.06172839506172839,0,0,0.06172839506172839,21.11111111111111,0)" xlink:href="#X"/><use transform="matrix(0.06172839506172839,0,0,0.06172839506172839,42.22222222222222,0)" xlink:href="#an"/></g><g id="S"><use transform="matrix(0.06172839506172839,0,0,0.06172839506172839,0,0)" xlink:href="#aq"/><use transform="matrix(0.06172839506172839,0,0,0.06172839506172839,21.11111111111111,0)" xlink:href="#aA"/></g></defs></g></svg>